<?xml version="1.0" encoding="UTF-8" standalone="no"?>
<!-- Created with Inkscape (http://www.inkscape.org/) -->

<svg
   xmlns:dc="http://purl.org/dc/elements/1.1/"
   xmlns:cc="http://creativecommons.org/ns#"
   xmlns:rdf="http://www.w3.org/1999/02/22-rdf-syntax-ns#"
   xmlns:svg="http://www.w3.org/2000/svg"
   xmlns="http://www.w3.org/2000/svg"
   xmlns:sodipodi="http://sodipodi.sourceforge.net/DTD/sodipodi-0.dtd"
   xmlns:inkscape="http://www.inkscape.org/namespaces/inkscape"
   version="1.1"
   width="252.90569"
   height="70"
   id="svg3090"
   sodipodi:docname="0.svg"
   inkscape:version="0.92.2 (5c3e80d, 2017-08-06)"
   inkscape:export-filename="/home/andy/Downloads/0.png"
   inkscape:export-xdpi="147.69"
   inkscape:export-ydpi="147.69">
  <sodipodi:namedview
     pagecolor="#ffffff"
     bordercolor="#666666"
     borderopacity="1"
     objecttolerance="10"
     gridtolerance="10"
     guidetolerance="10"
     inkscape:pageopacity="0"
     inkscape:pageshadow="2"
     inkscape:window-width="1533"
     inkscape:window-height="845"
     id="namedview25"
     showgrid="false"
     inkscape:zoom="2"
     inkscape:cx="214.39836"
     inkscape:cy="27.451396"
     inkscape:window-x="67"
     inkscape:window-y="27"
     inkscape:window-maximized="1"
     inkscape:current-layer="svg3090" />
  <defs
     id="defs3092">
    <clipPath
       id="clipPath16">
      <path
         d="m 0,136.746 162.565,0 L 162.565,0 0,0 0,136.746 z"
         id="path18" />
    </clipPath>
  </defs>
  <metadata
     id="metadata3095">
    <rdf:RDF>
      <cc:Work
         rdf:about="">
        <dc:format>image/svg+xml</dc:format>
        <dc:type
           rdf:resource="http://purl.org/dc/dcmitype/StillImage" />
        <dc:title />
      </cc:Work>
    </rdf:RDF>
  </metadata>
  <g
     id="g4634">
    <g
       id="g20"
       transform="matrix(0.84883981,0,0,-0.84883981,252.17838,34.212063)">
      <path
         inkscape:connector-curvature="0"
         style="fill:#231f20;fill-opacity:1;fill-rule:nonzero;stroke:none"
         id="path22"
         d="m 0,0 -39.92,39.922 c -0.511,0.51 -1.344,0.51 -1.857,0 L -81.696,0 c -0.247,-0.245 -0.374,-0.579 -0.374,-0.932 0,-0.344 0.147,-0.677 0.392,-0.923 l 39.92,-39.922 c 0.247,-0.246 0.58,-0.384 0.927,-0.384 0.348,0 0.683,0.138 0.929,0.384 L 0.016,-1.855 C 0.528,-1.342 0.514,-0.512 0,0" />
    </g>
    <g
       id="g24"
       transform="matrix(0.84883981,0,0,-0.84883981,241.60438,25.557462)">
      <path
         inkscape:connector-curvature="0"
         style="fill:#ffffff;fill-opacity:1;fill-rule:nonzero;stroke:none"
         id="path26"
         d="m 0,0 -4.887,4.888 0.008,-0.006 -15.352,15.359 c 0,0.003 0,0.003 -0.003,0.006 l -5.233,5.231 -1.564,1.562 -0.987,0.991 c -0.1,0.1 -0.236,0.156 -0.372,0.156 -0.139,0 -0.272,-0.056 -0.371,-0.156 l -0.742,-0.739 h -0.004 l -22.406,-22.41 12.767,7.248 9.328,-4.395 10.198,7.911 0.435,-0.316 17.255,-17.262 c 0.532,-0.525 1.394,-0.525 1.93,0 0.535,0.536 0.535,1.399 0,1.932" />
    </g>
    <g
       id="g28"
       transform="matrix(0.84883981,0,0,-0.84883981,184.3234,35.249515)">
      <path
         inkscape:connector-curvature="0"
         style="fill:#ffffff;fill-opacity:1;fill-rule:nonzero;stroke:none"
         id="path30"
         d="m 0,0 38.723,-38.725 c 0.1,-0.099 0.23,-0.155 0.368,-0.155 0.135,0 0.264,0.056 0.363,0.155 L 78.18,0 c 0.091,0.091 0.135,0.206 0.141,0.325 H -0.142 C -0.135,0.206 -0.089,0.091 0,0" />
    </g>
  </g>
  <rect
     style="color:#000000;display:inline;overflow:visible;visibility:visible;fill:#a3a3a3;fill-opacity:1;fill-rule:nonzero;stroke:none;stroke-width:5.5481782;marker:none;enable-background:accumulate"
     id="rect4632"
     y="-4.0722657e-06"
     x="-0.22591397"
     height="70"
     width="180.33261" />
  <g
     id="g4626"
     transform="translate(-99.852026,-7.7817134)">
    <circle
       r="11.482189"
       cy="56.837719"
       cx="317.36499"
       id="path4621"
       style="fill:#000000;fill-opacity:1;stroke:none;stroke-width:1.03562236;stroke-miterlimit:4;stroke-dasharray:none;stroke-opacity:1" />
    <text
       id="text4619"
       y="64.941887"
       x="313.21396"
       style="font-style:normal;font-variant:normal;font-weight:normal;font-stretch:normal;font-size:40px;line-height:1.25;font-family:serif;-inkscape-font-specification:serif;letter-spacing:0px;word-spacing:0px;fill:#ffffff;fill-opacity:1;stroke:none"
       xml:space="preserve"><tspan
         style="font-style:normal;font-variant:normal;font-weight:bold;font-stretch:normal;font-size:21.33333397px;font-family:serif;-inkscape-font-specification:'serif Bold'"
         y="64.941887"
         x="313.21396"
         id="tspan4617"
         sodipodi:role="line">i</tspan></text>
  </g>
  <text
     xml:space="preserve"
     style="font-style:normal;font-variant:normal;font-weight:normal;font-stretch:normal;font-size:40px;line-height:0.80000001;font-family:Muli;-inkscape-font-specification:Muli;letter-spacing:0px;word-spacing:0px;fill:#000000;fill-opacity:1;stroke:none"
     x="3.6060688"
     y="26.899359"
     id="text4528"><tspan
       sodipodi:role="line"
       x="3.6060688"
       y="26.899359"
       style="font-style:normal;font-variant:normal;font-weight:bold;font-stretch:condensed;font-size:22.66666603px;line-height:0.80000001;font-family:'PT Sans Narrow';-inkscape-font-specification:'PT Sans Narrow Bold Condensed'"
       id="tspan4534">No rating</tspan><tspan
       sodipodi:role="line"
       x="3.6060688"
       y="58.899361"
       style="font-style:normal;font-variant:normal;font-weight:bold;font-stretch:condensed;font-size:22.66666603px;line-height:0.80000001;font-family:'PT Sans Narrow';-inkscape-font-specification:'PT Sans Narrow Bold Condensed'"
       id="tspan4538">Information Available</tspan></text>
  <path
     style="fill:#a3a3a3;fill-opacity:1;stroke:none;stroke-width:0.08838835;stroke-miterlimit:4;stroke-dasharray:none;stroke-opacity:1"
     d=""
     id="path869"
     inkscape:connector-curvature="0" />
  <path
     style="fill:#a3a3a3;fill-opacity:1;stroke:none;stroke-width:0.125;stroke-miterlimit:4;stroke-dasharray:none;stroke-opacity:1"
     d="m 200.92297,51.817354 c -9.02832,-9.023438 -16.46987,-16.504688 -16.53677,-16.625 -0.11571,-0.20809 1.50038,-0.21875 33.16383,-0.21875 h 33.28547 l -16.62464,16.625 c -9.14356,9.14375 -16.68048,16.625 -16.74871,16.625 -0.0682,0 -7.51086,-7.382813 -16.53918,-16.40625 z m 19.37955,8.420106 c 4.39839,-1.149173 7.58727,-4.483776 8.49921,-8.887602 0.45463,-2.195413 0.17256,-4.917851 -0.71821,-6.932041 -0.76946,-1.739887 -2.33131,-3.655288 -3.89222,-4.773281 -1.04254,-0.746709 -2.62193,-1.462252 -3.98044,-1.803338 -1.54531,-0.387985 -3.78426,-0.391843 -5.35963,-0.0092 -4.08752,0.992731 -7.28226,4.075199 -8.46069,8.163345 -0.33836,1.173839 -0.46119,3.608205 -0.24855,4.92633 0.77528,4.805926 4.47918,8.563876 9.35176,9.488218 1.28675,0.2441 3.52126,0.163991 4.80877,-0.172396 z"
     id="path871"
     inkscape:connector-curvature="0" />
</svg>
