<?xml version="1.0" encoding="UTF-8" standalone="no"?>
<!-- Created with Inkscape (http://www.inkscape.org/) -->

<svg
   xmlns:dc="http://purl.org/dc/elements/1.1/"
   xmlns:cc="http://creativecommons.org/ns#"
   xmlns:rdf="http://www.w3.org/1999/02/22-rdf-syntax-ns#"
   xmlns:svg="http://www.w3.org/2000/svg"
   xmlns="http://www.w3.org/2000/svg"
   xmlns:sodipodi="http://sodipodi.sourceforge.net/DTD/sodipodi-0.dtd"
   xmlns:inkscape="http://www.inkscape.org/namespaces/inkscape"
   version="1.1"
   width="252.90569"
   height="70"
   id="svg3090"
   sodipodi:docname="6.svg"
   inkscape:version="0.92.1 r15371">
  <sodipodi:namedview
     pagecolor="#ffffff"
     bordercolor="#666666"
     borderopacity="1"
     objecttolerance="10"
     gridtolerance="10"
     guidetolerance="10"
     inkscape:pageopacity="0"
     inkscape:pageshadow="2"
     inkscape:window-width="1244"
     inkscape:window-height="718"
     id="namedview25"
     showgrid="false"
     inkscape:zoom="2.5701281"
     inkscape:cx="110.50034"
     inkscape:cy="19.436573"
     inkscape:window-x="75"
     inkscape:window-y="34"
     inkscape:window-maximized="0"
     inkscape:current-layer="svg3090" />
  <defs
     id="defs3092">
    <clipPath
       id="clipPath16">
      <path
         d="m 0,136.746 162.565,0 L 162.565,0 0,0 0,136.746 z"
         id="path18" />
    </clipPath>
  </defs>
  <metadata
     id="metadata3095">
    <rdf:RDF>
      <cc:Work
         rdf:about="">
        <dc:format>image/svg+xml</dc:format>
        <dc:type
           rdf:resource="http://purl.org/dc/dcmitype/StillImage" />
        <dc:title />
      </cc:Work>
    </rdf:RDF>
  </metadata>
  <g
     id="g4634">
    <g
       id="g20"
       transform="matrix(0.84883981,0,0,-0.84883981,252.17838,34.212063)">
      <path
         inkscape:connector-curvature="0"
         style="fill:#231f20;fill-opacity:1;fill-rule:nonzero;stroke:none"
         id="path22"
         d="m 0,0 -39.92,39.922 c -0.511,0.51 -1.344,0.51 -1.857,0 L -81.696,0 c -0.247,-0.245 -0.374,-0.579 -0.374,-0.932 0,-0.344 0.147,-0.677 0.392,-0.923 l 39.92,-39.922 c 0.247,-0.246 0.58,-0.384 0.927,-0.384 0.348,0 0.683,0.138 0.929,0.384 L 0.016,-1.855 C 0.528,-1.342 0.514,-0.512 0,0" />
    </g>
    <g
       id="g24"
       transform="matrix(0.84883981,0,0,-0.84883981,241.60438,25.557462)">
      <path
         inkscape:connector-curvature="0"
         style="fill:#ffffff;fill-opacity:1;fill-rule:nonzero;stroke:none"
         id="path26"
         d="m 0,0 -4.887,4.888 0.008,-0.006 -15.352,15.359 c 0,0.003 0,0.003 -0.003,0.006 l -5.233,5.231 -1.564,1.562 -0.987,0.991 c -0.1,0.1 -0.236,0.156 -0.372,0.156 -0.139,0 -0.272,-0.056 -0.371,-0.156 l -0.742,-0.739 h -0.004 l -22.406,-22.41 12.767,7.248 9.328,-4.395 10.198,7.911 0.435,-0.316 17.255,-17.262 c 0.532,-0.525 1.394,-0.525 1.93,0 0.535,0.536 0.535,1.399 0,1.932" />
    </g>
    <g
       id="g28"
       transform="matrix(0.84883981,0,0,-0.84883981,184.3234,35.249515)">
      <path
         inkscape:connector-curvature="0"
         style="fill:#ffffff;fill-opacity:1;fill-rule:nonzero;stroke:none"
         id="path30"
         d="m 0,0 38.723,-38.725 c 0.1,-0.099 0.23,-0.155 0.368,-0.155 0.135,0 0.264,0.056 0.363,0.155 L 78.18,0 c 0.091,0.091 0.135,0.206 0.141,0.325 H -0.142 C -0.135,0.206 -0.089,0.091 0,0" />
    </g>
  </g>
  <rect
     style="color:#000000;display:inline;overflow:visible;visibility:visible;fill:#a3a3a3;fill-opacity:1;fill-rule:nonzero;stroke:none;stroke-width:5.5481782;marker:none;enable-background:accumulate"
     id="rect4632"
     y="-4.0722657e-06"
     x="-0.22591397"
     height="70"
     width="180.33261" />
  <text
     style="font-style:normal;font-weight:normal;font-size:18px;line-height:125%;font-family:'Bitstream Vera Sans';text-align:center;letter-spacing:0px;word-spacing:0px;text-anchor:middle;fill:#000000;fill-opacity:1;stroke:none"
     xml:space="preserve"
     id="text4618"
     y="28.36401"
     x="89.771828"><tspan
       style="font-style:normal;font-variant:normal;font-weight:bold;font-stretch:condensed;font-size:24px;font-family:'PT Sans Narrow';-inkscape-font-specification:'PT Sans Narrow Bold Condensed'"
       id="tspan4624"
       y="28.36401"
       x="89.771828">No Danger Rating:</tspan><tspan
       style="font-style:normal;font-variant:normal;font-weight:bold;font-stretch:condensed;font-size:24px;font-family:'PT Sans Narrow';-inkscape-font-specification:'PT Sans Narrow Bold Condensed'"
       id="tspan4630"
       y="58.36404"
       x="89.771828">Limited Data</tspan></text>
  <g
     id="g4626"
     transform="translate(-99.852026,-7.7817134)">
    <circle
       r="11.482189"
       cy="56.837719"
       cx="317.36499"
       id="path4621"
       style="fill:#000000;fill-opacity:1;stroke:none;stroke-width:1.03562236;stroke-miterlimit:4;stroke-dasharray:none;stroke-opacity:1" />
    <text
       id="text4619"
       y="64.941887"
       x="313.21396"
       style="font-style:normal;font-variant:normal;font-weight:normal;font-stretch:normal;font-size:40px;line-height:1.25;font-family:serif;-inkscape-font-specification:serif;letter-spacing:0px;word-spacing:0px;fill:#ffffff;fill-opacity:1;stroke:none"
       xml:space="preserve"><tspan
         style="font-style:normal;font-variant:normal;font-weight:bold;font-stretch:normal;font-size:21.33333397px;font-family:serif;-inkscape-font-specification:'serif Bold'"
         y="64.941887"
         x="313.21396"
         id="tspan4617"
         sodipodi:role="line">i</tspan></text>
  </g>
</svg>
